# xmcd
#
# Track frame offsets:
#	150
#	17690
#	36154
#	52191
#	71948
#	84190
#	104437
#	124742
#	141076
#	155068
#	169483
#	182562
#	202509
#	215039
#	232441
#
# Disc length: 3364 seconds
#
# Revision: 1
# Processed by: cddbd v1.4PL0 Copyright (c) Steve Scherf et al.
# Submitted via: CDmax 1.8
#
DISCID=df0d220f
DTITLE=Piter Wilkens - Sjongersbloed
DYEAR=1900
DGENRE=Country
TTITLE0=De Kening Fan De Greide
TTITLE1=Sjongersbloed
TTITLE2=Famkes
TTITLE3=Bealch Fol Drank
TTITLE4=Opel Manta
TTITLE5=Henkie Cola
TTITLE6=De Heftruksjauffeur
TTITLE7=Rein
TTITLE8=De Rocker
TTITLE9=Knoopkes
TTITLE10=104
TTITLE11=Myn Fanke
TTITLE12=Lang Libje It Publyk
TTITLE13=Dunsje Mei Dy
TTITLE14=Marsum Yn 'E Rein
EXTD=
EXTT0=
EXTT1=
EXTT2=
EXTT3=
EXTT4=
EXTT5=
EXTT6=
EXTT7=
EXTT8=
EXTT9=
EXTT10=
EXTT11=
EXTT12=
EXTT13=
EXTT14=
PLAYORDER=
